<?xml version="1.0" standalone="no"?>
<!DOCTYPE svg PUBLIC "-//W3C//DTD SVG 20010904//EN"
 "http://www.w3.org/TR/2001/REC-SVG-20010904/DTD/svg10.dtd">
<svg version="1.0" xmlns="http://www.w3.org/2000/svg"
 width="614.000000pt" height="614.000000pt" viewBox="0 0 614.000000 614.000000"
 preserveAspectRatio="xMidYMid meet">

<g transform="translate(0.000000,614.000000) scale(0.100000,-0.100000)"
fill="#000000" stroke="none">
<path d="M3141 3734 c-68 -36 -73 -50 -202 -637 -65 -301 -119 -554 -119 -564
0 -10 9 -37 20 -60 52 -116 206 -108 268 13 17 32 242 1071 242 1116 0 110
-112 181 -209 132z"/>
<path d="M2423 3613 c-45 -26 -431 -407 -443 -438 -16 -43 -12 -115 10 -149
28 -45 413 -414 445 -426 104 -40 205 24 205 131 0 62 -21 91 -182 249 l-133
130 137 133 c75 72 146 148 157 167 25 42 27 109 6 151 -34 64 -133 89 -202
52z"/>
<path d="M3563 3610 c-63 -38 -83 -132 -42 -200 11 -19 82 -95 157 -167 l137
-133 -133 -130 c-161 -158 -182 -187 -182 -249 0 -107 101 -171 205 -131 32
12 417 381 445 426 22 34 26 106 10 149 -12 31 -398 412 -443 438 -42 23 -114
22 -154 -3z"/>
</g>
</svg>
